HIERARCHY
ROOT Hips
{
	OFFSET 0.000000 0.000000 0.000000
	CHANNELS 6 Xposition Yposition Zposition Zrotation Yrotation Xrotation 
	JOINT LHipJoint
	{
		OFFSET 0.000000 0.000000 0.000000
		CHANNELS 3 Zrotation Yrotation Xrotation
		JOINT LeftUpLeg
		{
			OFFSET 1.363060 -1.794630 0.839290
			CHANNELS 3 Zrotation Yrotation Xrotation
			JOINT LeftLeg
			{
				OFFSET 2.448110 -6.726130 0.000000
				CHANNELS 3 Zrotation Yrotation Xrotation
				JOINT LeftFoot
				{
					OFFSET 2.562200 -7.039590 0.000000
					CHANNELS 3 Zrotation Yrotation Xrotation
					JOINT LeftToeBase
					{
						OFFSET 0.157640 -0.433110 2.322550
						CHANNELS 3 Zrotation Yrotation Xrotation
						End Site
						{
							OFFSET 0.000000 0.000000 0.000000
						}
					}
				}
			}
		}
	}
	JOINT RHipJoint
	{
		OFFSET 0.000000 0.000000 0.000000
		CHANNELS 3 Zrotation Yrotation Xrotation
		JOINT RightUpLeg
		{
			OFFSET -1.305520 -1.794630 0.839290
			CHANNELS 3 Zrotation Yrotation Xrotation
			JOINT RightLeg
			{
				OFFSET -2.542530 -6.985550 0.000000
				CHANNELS 3 Zrotation Yrotation Xrotation
				JOINT RightFoot
				{
					OFFSET -2.568260 -7.056230 0.000000
					CHANNELS 3 Zrotation Yrotation Xrotation
					JOINT RightToeBase
					{
						OFFSET -0.164730 -0.452590 2.363150
						CHANNELS 3 Zrotation Yrotation Xrotation
						End Site
						{
							OFFSET 0.000000 0.000000 0.000000
						}
					}
				}
			}
		}
	}
	JOINT LowerBack
	{
		OFFSET 0.000000 0.000000 0.000000
		CHANNELS 3 Zrotation Yrotation Xrotation
		JOINT Spine
		{
			OFFSET 0.028270 2.035590 -0.193380
			CHANNELS 3 Zrotation Yrotation Xrotation
			JOINT Spine1
			{
				OFFSET 0.056720 2.048850 -0.042750
				CHANNELS 3 Zrotation Yrotation Xrotation
				JOINT Neck
				{
					OFFSET 0.000000 0.000000 0.000000
					CHANNELS 3 Zrotation Yrotation Xrotation
					JOINT Neck1
					{
						OFFSET -0.054170 1.746240 0.172020
						CHANNELS 3 Zrotation Yrotation Xrotation
						JOINT Head
						{
							OFFSET 0.104070 1.761360 -0.123970
							CHANNELS 3 Zrotation Yrotation Xrotation
							End Site
							{
								OFFSET 0.000000 0.000000 0.000000
							}
						}
					}
				}
				JOINT LeftShoulder
				{
					OFFSET 0.000000 0.000000 0.000000
					CHANNELS 3 Zrotation Yrotation Xrotation
					JOINT LeftArm
					{
						OFFSET 3.362410 1.200890 -0.311210
						CHANNELS 3 Zrotation Yrotation Xrotation
						JOINT LeftForeArm
						{
							OFFSET 4.983000 -0.000000 -0.000000
							CHANNELS 3 Zrotation Yrotation Xrotation
							JOINT LeftHand
							{
								OFFSET 3.483560 -0.000000 -0.000000
								CHANNELS 3 Zrotation Yrotation Xrotation
								JOINT LeftFingerBase
								{
									OFFSET 0.000000 0.000000 0.000000
									CHANNELS 3 Zrotation Yrotation Xrotation
									JOINT LeftHandIndex1
									{
										OFFSET 0.715260 -0.000000 -0.000000
										CHANNELS 3 Zrotation Yrotation Xrotation
										End Site
										{
											OFFSET 0.000000 0.000000 0.000000
										}
									}
								}
								JOINT LThumb
								{
									OFFSET 0.000000 0.000000 0.000000
									CHANNELS 3 Zrotation Yrotation Xrotation
									End Site
									{
										OFFSET 0.000000 0.000000 0.000000
									}
								}
							}
						}
					}
				}
				JOINT RightShoulder
				{
					OFFSET 0.000000 0.000000 0.000000
					CHANNELS 3 Zrotation Yrotation Xrotation
					JOINT RightArm
					{
						OFFSET -3.136600 1.374050 -0.404650
						CHANNELS 3 Zrotation Yrotation Xrotation
						JOINT RightForeArm
						{
							OFFSET -5.241900 -0.000000 -0.000000
							CHANNELS 3 Zrotation Yrotation Xrotation
							JOINT RightHand
							{
								OFFSET -3.444170 -0.000000 -0.000000
								CHANNELS 3 Zrotation Yrotation Xrotation
								JOINT RightFingerBase
								{
									OFFSET 0.000000 0.000000 0.000000
									CHANNELS 3 Zrotation Yrotation Xrotation
									JOINT RightHandIndex1
									{
										OFFSET -0.622530 -0.000000 -0.000000
										CHANNELS 3 Zrotation Yrotation Xrotation
										End Site
										{
											OFFSET 0.000000 0.000000 0.000000
										}
									}
								}
								JOINT RThumb
								{
									OFFSET 0.000000 0.000000 0.000000
									CHANNELS 3 Zrotation Yrotation Xrotation
									End Site
									{
										OFFSET 0.000000 0.000000 0.000000
									}
								}
							}
						}
					}
				}
			}
		}
	}
}
MOTION
Frames: 5
Frame Time: 0.008333
3.301511 17.624501 0.082248 -4.918843 86.928096 -4.252907 -0.626507 4.568642 3.332983 -14.325048 -0.406971 -9.106150 0.746669 5.870663 19.418064 1.328496 -7.861617 -2.131700 0.051800 -1.468800 -4.039800 -2.810355 -5.145935 2.519614 19.686058 3.868426 -7.015878 -0.776368 -6.218499 23.558658 -1.082756 2.245780 -10.698178 0.000000 0.000000 0.000000 4.257423 0.269682 -1.761973 -0.946665 0.368816 3.303105 -3.378917 0.135187 -1.532849 -5.236508 -5.039960 -7.467694 6.412735 -6.854978 9.432541 2.661100 -3.217000 3.905000 -4.465860 -0.117325 1.000583 -75.936336 -1.994196 62.721984 15.518832 -27.298635 -3.300113 -0.014037 0.180753 -47.429437 9.869612 8.260828 1.391300 -7.125000 0.000000 0.000000 -14.576800 37.846300 2.634600 4.382336 -0.191807 0.258717 81.099634 -1.039993 43.145430 -15.285165 29.126239 -3.656888 0.030322 0.616127 11.323483 -3.222185 14.778079 -0.767000 7.125000 0.000000 0.000000 16.489900 -16.147200 11.756100 
3.301209 17.626917 0.082651 -1.504191 86.942724 -0.823861 -0.705191 4.533189 3.328752 -14.450052 -0.415757 -9.040303 0.733814 5.832802 19.327482 1.317802 -7.762786 -2.201804 0.060500 -1.586700 -4.364800 -2.881550 -5.182312 2.524271 19.561752 3.890901 -7.065888 -0.779399 -6.232343 23.577914 -1.089381 2.282489 -10.677071 0.000000 0.000000 0.000000 4.049261 0.249312 -1.788455 -0.957063 0.350071 3.313455 -3.322809 0.120898 -1.504229 -5.187468 -5.012774 -7.524815 6.366759 -6.816047 9.427982 2.634400 -3.197300 3.906200 -4.465309 -0.123507 1.003236 -75.948746 -2.070339 62.657376 15.495248 -27.269266 -3.293999 -0.028416 0.176743 -47.173194 9.701706 8.446352 1.398400 -7.125000 0.000000 0.000000 -14.744500 38.008900 2.606000 4.385081 -0.194139 0.258061 81.042270 -1.061498 43.300457 -15.349065 29.199657 -3.679929 0.022725 0.615380 11.197072 -3.364355 14.723503 -0.797600 7.125000 0.000000 0.000000 16.403500 -16.192400 11.672100 
3.301612 17.627320 0.082550 -1.469713 86.908679 -0.787981 -0.707226 4.533373 3.329531 -14.453133 -0.434020 -8.994797 0.726708 5.817912 19.284987 1.310922 -7.686180 -2.258673 0.064400 -1.637800 -4.505700 -2.882487 -5.182451 2.523661 19.554372 3.904080 -7.082782 -0.783398 -6.239689 23.595665 -1.099104 2.346060 -10.643542 0.000000 0.000000 0.000000 4.029983 0.249324 -1.801642 -0.938014 0.347304 3.320376 -3.283230 0.119820 -1.490488 -5.235767 -5.005922 -7.518501 6.389031 -6.804679 9.400082 2.651500 -3.192800 3.895300 -4.466727 -0.124488 1.004803 -75.946623 -2.042811 62.811967 15.557356 -27.338507 -3.312709 -0.019391 0.185953 -47.512357 9.925222 8.349675 1.413300 -7.125000 0.000000 0.000000 -14.548700 37.930000 2.598500 4.387236 -0.196584 0.258484 80.993861 -1.052510 43.326487 -15.362707 29.216349 -3.685625 0.021940 0.615618 11.148180 -3.362654 14.723862 -0.797100 7.125000 0.000000 0.000000 16.404800 -16.192400 11.673100 
3.301712 17.627320 0.082550 -0.377990 86.905431 0.293989 -0.730418 4.520796 3.326751 -14.494773 -0.438585 -8.958727 0.722967 5.805170 19.257071 1.304680 -7.648051 -2.251524 0.064700 -1.641200 -4.515100 -2.904372 -5.196537 2.526567 19.511823 3.913247 -7.085055 -0.786246 -6.245713 23.606746 -1.111489 2.408204 -10.637024 0.000000 0.000000 0.000000 3.965717 0.243615 -1.808661 -0.933677 0.341791 3.330289 -3.254198 0.115505 -1.481427 -5.266697 -4.996043 -7.446487 6.405567 -6.790206 9.321819 2.665200 -3.188100 3.851700 -4.467793 -0.125435 1.007195 -75.943103 -2.009894 62.929877 15.612325 -27.402440 -3.331031 -0.016024 0.194751 -47.797460 10.106793 8.329507 1.434600 -7.125000 0.000000 0.000000 -14.400300 37.919500 2.574500 4.389565 -0.201509 0.258932 80.944960 -1.035093 43.397359 -15.363831 29.216578 -3.685425 0.019388 0.616574 11.042293 -3.403422 14.740671 -0.807600 7.125000 0.000000 0.000000 16.377700 -16.175300 11.658400 
3.301511 17.626615 0.082450 0.663654 86.892146 1.325768 -0.749992 4.508089 3.322368 -14.540899 -0.384933 -8.964364 0.724967 5.802443 19.260615 1.299510 -7.651645 -2.167999 0.060200 -1.583400 -4.355500 -2.924061 -5.210157 2.530150 19.469189 3.932478 -7.084324 -0.784973 -6.246558 23.601416 -1.113295 2.417730 -10.632204 0.000000 0.000000 0.000000 3.911298 0.252182 -1.804086 -0.939448 0.357210 3.333760 -3.246083 0.121082 -1.483627 -5.266710 -4.997388 -7.387198 6.416098 -6.792493 9.247076 2.670300 -3.190500 3.812000 -4.464187 -0.127372 1.008150 -75.973906 -2.031006 62.838677 15.551011 -27.330747 -3.308251 -0.012162 0.180243 -47.870963 9.930208 8.162797 1.383600 -7.125000 0.000000 0.000000 -14.507100 37.756800 2.654100 4.388410 -0.203925 0.260006 80.955091 -1.047255 43.350844 -15.361308 29.214366 -3.684651 0.017633 0.618071 11.036980 -3.461878 14.780589 -0.823600 7.125000 0.000000 0.000000 16.337400 -16.136000 11.641700 
